<mxfile host="app.diagrams.net" agent="Mozilla/5.0 (Macintosh; Intel Mac OS X 10_15_7) AppleWebKit/605.1.15 (KHTML, like Gecko) Version/18.0.1 Safari/605.1.15" version="24.7.17">
  <diagram name="Pagina-1" id="lUEla5uIiF-IXY3hE-Hj">
    <mxGraphModel dx="3107" dy="2769" grid="1" gridSize="10" guides="1" tooltips="1" connect="1" arrows="1" fold="1" page="1" pageScale="1" pageWidth="827" pageHeight="1169" math="0" shadow="0">
      <root>
        <mxCell id="0" />
        <mxCell id="1" parent="0" />
        <mxCell id="B6hAdmat24an9LXhmFXZ-1" value="Utente" style="rounded=0;whiteSpace=wrap;html=1;" parent="1" vertex="1">
          <mxGeometry x="200" y="-120" width="120" height="60" as="geometry" />
        </mxCell>
        <mxCell id="B6hAdmat24an9LXhmFXZ-2" value="Tessere" style="rounded=0;whiteSpace=wrap;html=1;" parent="1" vertex="1">
          <mxGeometry x="200" y="120" width="120" height="60" as="geometry" />
        </mxCell>
        <mxCell id="B6hAdmat24an9LXhmFXZ-3" value="Prestito" style="rounded=0;whiteSpace=wrap;html=1;" parent="1" vertex="1">
          <mxGeometry x="400" y="240" width="120" height="60" as="geometry" />
        </mxCell>
        <mxCell id="B6hAdmat24an9LXhmFXZ-4" value="LIbro" style="rounded=0;whiteSpace=wrap;html=1;" parent="1" vertex="1">
          <mxGeometry x="400" y="480" width="120" height="60" as="geometry" />
        </mxCell>
        <mxCell id="B6hAdmat24an9LXhmFXZ-5" value="Scaffale" style="rounded=0;whiteSpace=wrap;html=1;" parent="1" vertex="1">
          <mxGeometry x="400" y="720" width="120" height="60" as="geometry" />
        </mxCell>
        <mxCell id="B6hAdmat24an9LXhmFXZ-6" value="Sala" style="rounded=0;whiteSpace=wrap;html=1;" parent="1" vertex="1">
          <mxGeometry x="200" y="840" width="120" height="60" as="geometry" />
        </mxCell>
        <mxCell id="B6hAdmat24an9LXhmFXZ-7" value="Account" style="rounded=0;whiteSpace=wrap;html=1;" parent="1" vertex="1">
          <mxGeometry y="240" width="120" height="60" as="geometry" />
        </mxCell>
        <mxCell id="B6hAdmat24an9LXhmFXZ-8" value="Prenotazione" style="rounded=0;whiteSpace=wrap;html=1;" parent="1" vertex="1">
          <mxGeometry y="480" width="120" height="60" as="geometry" />
        </mxCell>
        <mxCell id="B6hAdmat24an9LXhmFXZ-9" value="Posto" style="rounded=0;whiteSpace=wrap;html=1;" parent="1" vertex="1">
          <mxGeometry y="720" width="120" height="60" as="geometry" />
        </mxCell>
        <mxCell id="B6hAdmat24an9LXhmFXZ-10" value="Bibliotecari" style="rounded=0;whiteSpace=wrap;html=1;" parent="1" vertex="1">
          <mxGeometry x="800" y="240" width="120" height="60" as="geometry" />
        </mxCell>
        <mxCell id="B6hAdmat24an9LXhmFXZ-11" value="Dipendenti" style="rounded=0;whiteSpace=wrap;html=1;" parent="1" vertex="1">
          <mxGeometry x="921" y="120" width="120" height="60" as="geometry" />
        </mxCell>
        <mxCell id="B6hAdmat24an9LXhmFXZ-12" value="Pulizia" style="rounded=0;whiteSpace=wrap;html=1;" parent="1" vertex="1">
          <mxGeometry x="1041" y="240" width="120" height="60" as="geometry" />
        </mxCell>
        <mxCell id="B6hAdmat24an9LXhmFXZ-13" value="Contratto" style="rounded=0;whiteSpace=wrap;html=1;" parent="1" vertex="1">
          <mxGeometry x="921" y="-100" width="120" height="60" as="geometry" />
        </mxCell>
        <mxCell id="B6hAdmat24an9LXhmFXZ-14" value="Turni" style="rounded=0;whiteSpace=wrap;html=1;" parent="1" vertex="1">
          <mxGeometry x="1320" y="120" width="120" height="60" as="geometry" />
        </mxCell>
        <mxCell id="B6hAdmat24an9LXhmFXZ-15" value="Oggetti smarriti&amp;nbsp;" style="rounded=0;whiteSpace=wrap;html=1;" parent="1" vertex="1">
          <mxGeometry x="1041" y="480" width="120" height="60" as="geometry" />
        </mxCell>
        <mxCell id="B6hAdmat24an9LXhmFXZ-16" value="Ã¨ tesserato" style="shape=rhombus;perimeter=rhombusPerimeter;whiteSpace=wrap;html=1;align=center;" parent="1" vertex="1">
          <mxGeometry x="200" width="120" height="60" as="geometry" />
        </mxCell>
        <mxCell id="B6hAdmat24an9LXhmFXZ-17" value="possiede" style="shape=rhombus;perimeter=rhombusPerimeter;whiteSpace=wrap;html=1;align=center;" parent="1" vertex="1">
          <mxGeometry y="120" width="120" height="60" as="geometry" />
        </mxCell>
        <mxCell id="B6hAdmat24an9LXhmFXZ-18" value="riservato" style="shape=rhombus;perimeter=rhombusPerimeter;whiteSpace=wrap;html=1;align=center;" parent="1" vertex="1">
          <mxGeometry y="360" width="120" height="60" as="geometry" />
        </mxCell>
        <mxCell id="B6hAdmat24an9LXhmFXZ-19" value="richiede" style="shape=rhombus;perimeter=rhombusPerimeter;whiteSpace=wrap;html=1;align=center;" parent="1" vertex="1">
          <mxGeometry x="400" y="120" width="120" height="60" as="geometry" />
        </mxCell>
        <mxCell id="B6hAdmat24an9LXhmFXZ-20" value="prestato" style="shape=rhombus;perimeter=rhombusPerimeter;whiteSpace=wrap;html=1;align=center;" parent="1" vertex="1">
          <mxGeometry x="400" y="360" width="120" height="60" as="geometry" />
        </mxCell>
        <mxCell id="B6hAdmat24an9LXhmFXZ-21" value="riposto" style="shape=rhombus;perimeter=rhombusPerimeter;whiteSpace=wrap;html=1;align=center;" parent="1" vertex="1">
          <mxGeometry x="400" y="600" width="120" height="60" as="geometry" />
        </mxCell>
        <mxCell id="B6hAdmat24an9LXhmFXZ-22" value="occupa" style="shape=rhombus;perimeter=rhombusPerimeter;whiteSpace=wrap;html=1;align=center;" parent="1" vertex="1">
          <mxGeometry x="-200" y="720" width="120" height="60" as="geometry" />
        </mxCell>
        <mxCell id="B6hAdmat24an9LXhmFXZ-23" value="situato" style="shape=rhombus;perimeter=rhombusPerimeter;whiteSpace=wrap;html=1;align=center;" parent="1" vertex="1">
          <mxGeometry y="840" width="120" height="60" as="geometry" />
        </mxCell>
        <mxCell id="B6hAdmat24an9LXhmFXZ-24" value="situato" style="shape=rhombus;perimeter=rhombusPerimeter;whiteSpace=wrap;html=1;align=center;" parent="1" vertex="1">
          <mxGeometry x="400" y="840" width="120" height="60" as="geometry" />
        </mxCell>
        <mxCell id="B6hAdmat24an9LXhmFXZ-25" value="Iscrizione" style="rounded=0;whiteSpace=wrap;html=1;" parent="1" vertex="1">
          <mxGeometry x="600" y="120" width="120" height="60" as="geometry" />
        </mxCell>
        <mxCell id="B6hAdmat24an9LXhmFXZ-26" value="registra" style="shape=rhombus;perimeter=rhombusPerimeter;whiteSpace=wrap;html=1;align=center;" parent="1" vertex="1">
          <mxGeometry x="600" y="240" width="120" height="60" as="geometry" />
        </mxCell>
        <mxCell id="B6hAdmat24an9LXhmFXZ-27" value="trovano" style="shape=rhombus;perimeter=rhombusPerimeter;whiteSpace=wrap;html=1;align=center;" parent="1" vertex="1">
          <mxGeometry x="1041" y="360" width="120" height="60" as="geometry" />
        </mxCell>
        <mxCell id="B6hAdmat24an9LXhmFXZ-28" value="assunzione" style="shape=rhombus;perimeter=rhombusPerimeter;whiteSpace=wrap;html=1;align=center;" parent="1" vertex="1">
          <mxGeometry x="920" y="10" width="120" height="60" as="geometry" />
        </mxCell>
        <mxCell id="B6hAdmat24an9LXhmFXZ-30" value="lavorano" style="shape=rhombus;perimeter=rhombusPerimeter;whiteSpace=wrap;html=1;align=center;" parent="1" vertex="1">
          <mxGeometry x="1121" y="120" width="120" height="60" as="geometry" />
        </mxCell>
        <mxCell id="B6hAdmat24an9LXhmFXZ-31" value="Registro pulizie" style="whiteSpace=wrap;html=1;" parent="1" vertex="1">
          <mxGeometry x="800" y="600" width="120" height="60" as="geometry" />
        </mxCell>
        <mxCell id="B6hAdmat24an9LXhmFXZ-32" value="hanno pulito" style="shape=rhombus;perimeter=rhombusPerimeter;whiteSpace=wrap;html=1;align=center;" parent="1" vertex="1">
          <mxGeometry x="800" y="480" width="120" height="60" as="geometry" />
        </mxCell>
        <mxCell id="B6hAdmat24an9LXhmFXZ-35" value="" style="endArrow=none;html=1;rounded=0;exitX=1;exitY=0.5;exitDx=0;exitDy=0;" parent="1" source="B6hAdmat24an9LXhmFXZ-6" edge="1">
          <mxGeometry width="50" height="50" relative="1" as="geometry">
            <mxPoint x="350" y="920" as="sourcePoint" />
            <mxPoint x="400" y="870" as="targetPoint" />
          </mxGeometry>
        </mxCell>
        <mxCell id="B6hAdmat24an9LXhmFXZ-36" value="" style="endArrow=none;html=1;rounded=0;entryX=0;entryY=0.5;entryDx=0;entryDy=0;" parent="1" target="B6hAdmat24an9LXhmFXZ-6" edge="1">
          <mxGeometry width="50" height="50" relative="1" as="geometry">
            <mxPoint x="120" y="870" as="sourcePoint" />
            <mxPoint x="170" y="820" as="targetPoint" />
          </mxGeometry>
        </mxCell>
        <mxCell id="B6hAdmat24an9LXhmFXZ-37" value="" style="endArrow=none;html=1;rounded=0;" parent="1" source="B6hAdmat24an9LXhmFXZ-9" edge="1">
          <mxGeometry width="50" height="50" relative="1" as="geometry">
            <mxPoint x="60" y="830" as="sourcePoint" />
            <mxPoint x="60" y="840" as="targetPoint" />
          </mxGeometry>
        </mxCell>
        <mxCell id="B6hAdmat24an9LXhmFXZ-41" value="" style="endArrow=none;html=1;rounded=0;" parent="1" source="B6hAdmat24an9LXhmFXZ-18" edge="1">
          <mxGeometry width="50" height="50" relative="1" as="geometry">
            <mxPoint x="60" y="470" as="sourcePoint" />
            <mxPoint x="60" y="480" as="targetPoint" />
          </mxGeometry>
        </mxCell>
        <mxCell id="B6hAdmat24an9LXhmFXZ-42" value="" style="endArrow=none;html=1;rounded=0;" parent="1" source="B6hAdmat24an9LXhmFXZ-7" edge="1">
          <mxGeometry width="50" height="50" relative="1" as="geometry">
            <mxPoint x="60" y="350" as="sourcePoint" />
            <mxPoint x="60" y="360" as="targetPoint" />
          </mxGeometry>
        </mxCell>
        <mxCell id="B6hAdmat24an9LXhmFXZ-43" value="" style="endArrow=none;html=1;rounded=0;entryX=0.5;entryY=1;entryDx=0;entryDy=0;" parent="1" target="B6hAdmat24an9LXhmFXZ-17" edge="1">
          <mxGeometry width="50" height="50" relative="1" as="geometry">
            <mxPoint x="60" y="240" as="sourcePoint" />
            <mxPoint x="110" y="190" as="targetPoint" />
          </mxGeometry>
        </mxCell>
        <mxCell id="B6hAdmat24an9LXhmFXZ-44" value="" style="endArrow=none;html=1;rounded=0;entryX=0;entryY=0.5;entryDx=0;entryDy=0;" parent="1" target="B6hAdmat24an9LXhmFXZ-2" edge="1">
          <mxGeometry width="50" height="50" relative="1" as="geometry">
            <mxPoint x="120" y="150" as="sourcePoint" />
            <mxPoint x="170" y="100" as="targetPoint" />
          </mxGeometry>
        </mxCell>
        <mxCell id="B6hAdmat24an9LXhmFXZ-45" value="" style="endArrow=none;html=1;rounded=0;entryX=0;entryY=0.5;entryDx=0;entryDy=0;" parent="1" target="B6hAdmat24an9LXhmFXZ-19" edge="1">
          <mxGeometry width="50" height="50" relative="1" as="geometry">
            <mxPoint x="320" y="150" as="sourcePoint" />
            <mxPoint x="370" y="100" as="targetPoint" />
          </mxGeometry>
        </mxCell>
        <mxCell id="B6hAdmat24an9LXhmFXZ-46" value="" style="endArrow=none;html=1;rounded=0;exitX=0.5;exitY=0;exitDx=0;exitDy=0;" parent="1" source="B6hAdmat24an9LXhmFXZ-3" edge="1">
          <mxGeometry width="50" height="50" relative="1" as="geometry">
            <mxPoint x="410" y="230" as="sourcePoint" />
            <mxPoint x="460" y="180" as="targetPoint" />
          </mxGeometry>
        </mxCell>
        <mxCell id="B6hAdmat24an9LXhmFXZ-47" value="" style="endArrow=none;html=1;rounded=0;entryX=0.5;entryY=1;entryDx=0;entryDy=0;" parent="1" target="B6hAdmat24an9LXhmFXZ-3" edge="1">
          <mxGeometry width="50" height="50" relative="1" as="geometry">
            <mxPoint x="460" y="360" as="sourcePoint" />
            <mxPoint x="510" y="310" as="targetPoint" />
          </mxGeometry>
        </mxCell>
        <mxCell id="B6hAdmat24an9LXhmFXZ-49" value="state pulite" style="shape=rhombus;perimeter=rhombusPerimeter;whiteSpace=wrap;html=1;align=center;" parent="1" vertex="1">
          <mxGeometry x="801" y="720" width="120" height="60" as="geometry" />
        </mxCell>
        <mxCell id="B6hAdmat24an9LXhmFXZ-51" value="" style="endArrow=none;html=1;rounded=0;" parent="1" edge="1">
          <mxGeometry width="50" height="50" relative="1" as="geometry">
            <mxPoint x="260" y="920" as="sourcePoint" />
            <mxPoint x="260" y="900" as="targetPoint" />
          </mxGeometry>
        </mxCell>
        <mxCell id="B6hAdmat24an9LXhmFXZ-53" value="" style="endArrow=none;html=1;rounded=0;entryX=0.5;entryY=1;entryDx=0;entryDy=0;" parent="1" target="B6hAdmat24an9LXhmFXZ-49" edge="1">
          <mxGeometry width="50" height="50" relative="1" as="geometry">
            <mxPoint x="860" y="920" as="sourcePoint" />
            <mxPoint x="860" y="900" as="targetPoint" />
          </mxGeometry>
        </mxCell>
        <mxCell id="B6hAdmat24an9LXhmFXZ-54" value="" style="endArrow=none;html=1;rounded=0;exitX=0.5;exitY=0;exitDx=0;exitDy=0;" parent="1" source="B6hAdmat24an9LXhmFXZ-24" edge="1">
          <mxGeometry width="50" height="50" relative="1" as="geometry">
            <mxPoint x="410" y="830" as="sourcePoint" />
            <mxPoint x="460" y="780" as="targetPoint" />
          </mxGeometry>
        </mxCell>
        <mxCell id="B6hAdmat24an9LXhmFXZ-55" value="" style="endArrow=none;html=1;rounded=0;exitX=0.5;exitY=0;exitDx=0;exitDy=0;" parent="1" source="B6hAdmat24an9LXhmFXZ-5" edge="1">
          <mxGeometry width="50" height="50" relative="1" as="geometry">
            <mxPoint x="410" y="710" as="sourcePoint" />
            <mxPoint x="460" y="660" as="targetPoint" />
          </mxGeometry>
        </mxCell>
        <mxCell id="B6hAdmat24an9LXhmFXZ-56" value="" style="endArrow=none;html=1;rounded=0;exitX=0.5;exitY=0;exitDx=0;exitDy=0;" parent="1" source="B6hAdmat24an9LXhmFXZ-21" edge="1">
          <mxGeometry width="50" height="50" relative="1" as="geometry">
            <mxPoint x="410" y="590" as="sourcePoint" />
            <mxPoint x="460" y="540" as="targetPoint" />
          </mxGeometry>
        </mxCell>
        <mxCell id="B6hAdmat24an9LXhmFXZ-58" value="" style="endArrow=none;html=1;rounded=0;entryX=0.5;entryY=1;entryDx=0;entryDy=0;" parent="1" target="B6hAdmat24an9LXhmFXZ-25" edge="1">
          <mxGeometry width="50" height="50" relative="1" as="geometry">
            <mxPoint x="660" y="240" as="sourcePoint" />
            <mxPoint x="710" y="190" as="targetPoint" />
          </mxGeometry>
        </mxCell>
        <mxCell id="B6hAdmat24an9LXhmFXZ-59" value="" style="endArrow=none;html=1;rounded=0;entryX=0;entryY=0.5;entryDx=0;entryDy=0;" parent="1" target="B6hAdmat24an9LXhmFXZ-10" edge="1">
          <mxGeometry width="50" height="50" relative="1" as="geometry">
            <mxPoint x="720" y="270" as="sourcePoint" />
            <mxPoint x="770" y="220" as="targetPoint" />
          </mxGeometry>
        </mxCell>
        <mxCell id="B6hAdmat24an9LXhmFXZ-60" value="" style="endArrow=none;html=1;rounded=0;" parent="1" edge="1">
          <mxGeometry width="50" height="50" relative="1" as="geometry">
            <mxPoint x="860" y="240" as="sourcePoint" />
            <mxPoint x="860" y="220" as="targetPoint" />
          </mxGeometry>
        </mxCell>
        <mxCell id="B6hAdmat24an9LXhmFXZ-61" value="" style="endArrow=none;html=1;rounded=0;" parent="1" edge="1">
          <mxGeometry width="50" height="50" relative="1" as="geometry">
            <mxPoint x="1100" y="240" as="sourcePoint" />
            <mxPoint x="1100" y="220" as="targetPoint" />
          </mxGeometry>
        </mxCell>
        <mxCell id="B6hAdmat24an9LXhmFXZ-62" value="" style="endArrow=none;html=1;rounded=0;" parent="1" edge="1">
          <mxGeometry width="50" height="50" relative="1" as="geometry">
            <mxPoint x="860" y="220" as="sourcePoint" />
            <mxPoint x="1100" y="220" as="targetPoint" />
          </mxGeometry>
        </mxCell>
        <mxCell id="B6hAdmat24an9LXhmFXZ-63" value="" style="shape=flexArrow;endArrow=classic;html=1;rounded=0;strokeColor=#000000;fillColor=#000000;" parent="1" edge="1">
          <mxGeometry width="50" height="50" relative="1" as="geometry">
            <mxPoint x="980" y="220" as="sourcePoint" />
            <mxPoint x="979.82" y="180" as="targetPoint" />
          </mxGeometry>
        </mxCell>
        <mxCell id="B6hAdmat24an9LXhmFXZ-64" value="" style="endArrow=none;html=1;rounded=0;entryX=0.5;entryY=1;entryDx=0;entryDy=0;" parent="1" target="B6hAdmat24an9LXhmFXZ-28" edge="1">
          <mxGeometry width="50" height="50" relative="1" as="geometry">
            <mxPoint x="980" y="120" as="sourcePoint" />
            <mxPoint x="1030" y="70" as="targetPoint" />
          </mxGeometry>
        </mxCell>
        <mxCell id="B6hAdmat24an9LXhmFXZ-65" value="" style="endArrow=none;html=1;rounded=0;entryX=0.5;entryY=1;entryDx=0;entryDy=0;" parent="1" target="B6hAdmat24an9LXhmFXZ-13" edge="1">
          <mxGeometry width="50" height="50" relative="1" as="geometry">
            <mxPoint x="980" y="10" as="sourcePoint" />
            <mxPoint x="1030" y="-40" as="targetPoint" />
          </mxGeometry>
        </mxCell>
        <mxCell id="B6hAdmat24an9LXhmFXZ-66" value="" style="endArrow=none;html=1;rounded=0;entryX=0;entryY=0.5;entryDx=0;entryDy=0;" parent="1" target="B6hAdmat24an9LXhmFXZ-30" edge="1">
          <mxGeometry width="50" height="50" relative="1" as="geometry">
            <mxPoint x="1040" y="150" as="sourcePoint" />
            <mxPoint x="1090" y="100" as="targetPoint" />
          </mxGeometry>
        </mxCell>
        <mxCell id="B6hAdmat24an9LXhmFXZ-67" value="" style="endArrow=none;html=1;rounded=0;entryX=0;entryY=0.5;entryDx=0;entryDy=0;" parent="1" target="B6hAdmat24an9LXhmFXZ-14" edge="1">
          <mxGeometry width="50" height="50" relative="1" as="geometry">
            <mxPoint x="1240" y="150" as="sourcePoint" />
            <mxPoint x="1290" y="100" as="targetPoint" />
          </mxGeometry>
        </mxCell>
        <mxCell id="B6hAdmat24an9LXhmFXZ-68" value="" style="endArrow=none;html=1;rounded=0;" parent="1" source="B6hAdmat24an9LXhmFXZ-16" edge="1">
          <mxGeometry width="50" height="50" relative="1" as="geometry">
            <mxPoint x="260" y="110" as="sourcePoint" />
            <mxPoint x="260" y="120" as="targetPoint" />
          </mxGeometry>
        </mxCell>
        <mxCell id="B6hAdmat24an9LXhmFXZ-69" value="" style="endArrow=none;html=1;rounded=0;entryX=0.5;entryY=1;entryDx=0;entryDy=0;" parent="1" target="B6hAdmat24an9LXhmFXZ-1" edge="1">
          <mxGeometry width="50" height="50" relative="1" as="geometry">
            <mxPoint x="260" as="sourcePoint" />
            <mxPoint x="310" y="-50" as="targetPoint" />
          </mxGeometry>
        </mxCell>
        <mxCell id="B6hAdmat24an9LXhmFXZ-71" value="" style="endArrow=none;html=1;rounded=0;entryX=0.485;entryY=1.026;entryDx=0;entryDy=0;entryPerimeter=0;" parent="1" target="B6hAdmat24an9LXhmFXZ-12" edge="1">
          <mxGeometry width="50" height="50" relative="1" as="geometry">
            <mxPoint x="1100" y="360" as="sourcePoint" />
            <mxPoint x="1150" y="310" as="targetPoint" />
          </mxGeometry>
        </mxCell>
        <mxCell id="B6hAdmat24an9LXhmFXZ-72" value="" style="endArrow=none;html=1;rounded=0;entryX=0.5;entryY=1;entryDx=0;entryDy=0;" parent="1" target="B6hAdmat24an9LXhmFXZ-27" edge="1">
          <mxGeometry width="50" height="50" relative="1" as="geometry">
            <mxPoint x="1100" y="480" as="sourcePoint" />
            <mxPoint x="1150" y="430" as="targetPoint" />
          </mxGeometry>
        </mxCell>
        <mxCell id="B6hAdmat24an9LXhmFXZ-74" value="" style="endArrow=none;html=1;rounded=0;exitX=0.5;exitY=0;exitDx=0;exitDy=0;" parent="1" source="B6hAdmat24an9LXhmFXZ-31" edge="1">
          <mxGeometry width="50" height="50" relative="1" as="geometry">
            <mxPoint x="810" y="590" as="sourcePoint" />
            <mxPoint x="860" y="540" as="targetPoint" />
          </mxGeometry>
        </mxCell>
        <mxCell id="B6hAdmat24an9LXhmFXZ-75" value="" style="endArrow=none;html=1;rounded=0;" parent="1" edge="1">
          <mxGeometry width="50" height="50" relative="1" as="geometry">
            <mxPoint x="260" y="920" as="sourcePoint" />
            <mxPoint x="400" y="920" as="targetPoint" />
          </mxGeometry>
        </mxCell>
        <mxCell id="B6hAdmat24an9LXhmFXZ-77" value="" style="endArrow=none;html=1;rounded=0;" parent="1" edge="1">
          <mxGeometry width="50" height="50" relative="1" as="geometry">
            <mxPoint x="520" y="920" as="sourcePoint" />
            <mxPoint x="860" y="920" as="targetPoint" />
          </mxGeometry>
        </mxCell>
        <mxCell id="B6hAdmat24an9LXhmFXZ-78" value="" style="endArrow=none;html=1;rounded=0;" parent="1" edge="1">
          <mxGeometry width="50" height="50" relative="1" as="geometry">
            <mxPoint x="400" y="950" as="sourcePoint" />
            <mxPoint x="400" y="920" as="targetPoint" />
          </mxGeometry>
        </mxCell>
        <mxCell id="B6hAdmat24an9LXhmFXZ-79" value="" style="endArrow=none;html=1;rounded=0;" parent="1" edge="1">
          <mxGeometry width="50" height="50" relative="1" as="geometry">
            <mxPoint x="400" y="950" as="sourcePoint" />
            <mxPoint x="520" y="950" as="targetPoint" />
          </mxGeometry>
        </mxCell>
        <mxCell id="B6hAdmat24an9LXhmFXZ-80" value="" style="endArrow=none;html=1;rounded=0;" parent="1" edge="1">
          <mxGeometry width="50" height="50" relative="1" as="geometry">
            <mxPoint x="520" y="950" as="sourcePoint" />
            <mxPoint x="520" y="920" as="targetPoint" />
          </mxGeometry>
        </mxCell>
        <mxCell id="B6hAdmat24an9LXhmFXZ-81" value="" style="endArrow=none;html=1;rounded=0;entryX=0.5;entryY=1;entryDx=0;entryDy=0;" parent="1" target="B6hAdmat24an9LXhmFXZ-31" edge="1">
          <mxGeometry width="50" height="50" relative="1" as="geometry">
            <mxPoint x="860" y="720" as="sourcePoint" />
            <mxPoint x="910" y="670" as="targetPoint" />
          </mxGeometry>
        </mxCell>
        <mxCell id="B6hAdmat24an9LXhmFXZ-82" value="Ã¨ registrata" style="shape=rhombus;perimeter=rhombusPerimeter;whiteSpace=wrap;html=1;align=center;" parent="1" vertex="1">
          <mxGeometry x="600" width="120" height="60" as="geometry" />
        </mxCell>
        <mxCell id="B6hAdmat24an9LXhmFXZ-85" value="" style="endArrow=none;html=1;rounded=0;entryX=0.5;entryY=1;entryDx=0;entryDy=0;" parent="1" target="B6hAdmat24an9LXhmFXZ-82" edge="1">
          <mxGeometry width="50" height="50" relative="1" as="geometry">
            <mxPoint x="660" y="120" as="sourcePoint" />
            <mxPoint x="710" y="70" as="targetPoint" />
          </mxGeometry>
        </mxCell>
        <mxCell id="B6hAdmat24an9LXhmFXZ-86" value="" style="endArrow=none;html=1;rounded=0;" parent="1" edge="1">
          <mxGeometry width="50" height="50" relative="1" as="geometry">
            <mxPoint x="320" y="130" as="sourcePoint" />
            <mxPoint x="360" y="130" as="targetPoint" />
          </mxGeometry>
        </mxCell>
        <mxCell id="B6hAdmat24an9LXhmFXZ-87" value="" style="endArrow=none;html=1;rounded=0;" parent="1" edge="1">
          <mxGeometry width="50" height="50" relative="1" as="geometry">
            <mxPoint x="360" y="130" as="sourcePoint" />
            <mxPoint x="360" y="30" as="targetPoint" />
          </mxGeometry>
        </mxCell>
        <mxCell id="B6hAdmat24an9LXhmFXZ-88" value="" style="endArrow=none;html=1;rounded=0;entryX=0;entryY=0.5;entryDx=0;entryDy=0;" parent="1" target="B6hAdmat24an9LXhmFXZ-82" edge="1">
          <mxGeometry width="50" height="50" relative="1" as="geometry">
            <mxPoint x="360" y="30" as="sourcePoint" />
            <mxPoint x="410" y="-20" as="targetPoint" />
          </mxGeometry>
        </mxCell>
        <mxCell id="B6hAdmat24an9LXhmFXZ-92" value="" style="endArrow=none;html=1;rounded=0;entryX=0;entryY=0.5;entryDx=0;entryDy=0;" parent="1" target="B6hAdmat24an9LXhmFXZ-12" edge="1">
          <mxGeometry width="50" height="50" relative="1" as="geometry">
            <mxPoint x="1000" y="270" as="sourcePoint" />
            <mxPoint x="1050" y="220" as="targetPoint" />
          </mxGeometry>
        </mxCell>
        <mxCell id="B6hAdmat24an9LXhmFXZ-93" value="" style="endArrow=none;html=1;rounded=0;" parent="1" edge="1">
          <mxGeometry width="50" height="50" relative="1" as="geometry">
            <mxPoint x="1000" y="390" as="sourcePoint" />
            <mxPoint x="1000" y="270" as="targetPoint" />
          </mxGeometry>
        </mxCell>
        <mxCell id="B6hAdmat24an9LXhmFXZ-94" value="" style="endArrow=none;html=1;rounded=0;" parent="1" edge="1">
          <mxGeometry width="50" height="50" relative="1" as="geometry">
            <mxPoint x="860" y="480" as="sourcePoint" />
            <mxPoint x="860" y="390" as="targetPoint" />
          </mxGeometry>
        </mxCell>
        <mxCell id="B6hAdmat24an9LXhmFXZ-95" value="" style="endArrow=none;html=1;rounded=0;" parent="1" edge="1">
          <mxGeometry width="50" height="50" relative="1" as="geometry">
            <mxPoint x="860" y="390" as="sourcePoint" />
            <mxPoint x="1000" y="390" as="targetPoint" />
          </mxGeometry>
        </mxCell>
        <mxCell id="BqIFalrDcJLT26Kmx2qs-1" value="nome" style="text;html=1;align=center;verticalAlign=middle;resizable=0;points=[];autosize=1;strokeColor=none;fillColor=none;" vertex="1" parent="1">
          <mxGeometry x="120" y="-202" width="50" height="30" as="geometry" />
        </mxCell>
        <mxCell id="BqIFalrDcJLT26Kmx2qs-2" value="cognome" style="text;html=1;align=center;verticalAlign=middle;resizable=0;points=[];autosize=1;strokeColor=none;fillColor=none;" vertex="1" parent="1">
          <mxGeometry x="120" y="-232" width="70" height="30" as="geometry" />
        </mxCell>
        <mxCell id="BqIFalrDcJLT26Kmx2qs-3" value="n.tessera" style="text;html=1;align=center;verticalAlign=middle;resizable=0;points=[];autosize=1;strokeColor=none;fillColor=none;" vertex="1" parent="1">
          <mxGeometry x="120" y="-262" width="70" height="30" as="geometry" />
        </mxCell>
        <mxCell id="BqIFalrDcJLT26Kmx2qs-4" value="data nascita" style="text;html=1;align=center;verticalAlign=middle;resizable=0;points=[];autosize=1;strokeColor=none;fillColor=none;" vertex="1" parent="1">
          <mxGeometry x="200" y="-262" width="90" height="30" as="geometry" />
        </mxCell>
        <mxCell id="BqIFalrDcJLT26Kmx2qs-5" value="luogo nascita" style="text;html=1;align=center;verticalAlign=middle;resizable=0;points=[];autosize=1;strokeColor=none;fillColor=none;" vertex="1" parent="1">
          <mxGeometry x="200" y="-220" width="90" height="30" as="geometry" />
        </mxCell>
        <mxCell id="BqIFalrDcJLT26Kmx2qs-6" value="id tessera" style="text;html=1;align=center;verticalAlign=middle;resizable=0;points=[];autosize=1;strokeColor=none;fillColor=none;" vertex="1" parent="1">
          <mxGeometry x="160" y="188" width="80" height="30" as="geometry" />
        </mxCell>
        <mxCell id="BqIFalrDcJLT26Kmx2qs-8" value="data inizio" style="text;html=1;align=center;verticalAlign=middle;resizable=0;points=[];autosize=1;strokeColor=none;fillColor=none;" vertex="1" parent="1">
          <mxGeometry x="250" y="188" width="80" height="30" as="geometry" />
        </mxCell>
        <mxCell id="BqIFalrDcJLT26Kmx2qs-10" value="data fine" style="text;html=1;align=center;verticalAlign=middle;resizable=0;points=[];autosize=1;strokeColor=none;fillColor=none;" vertex="1" parent="1">
          <mxGeometry x="220" y="218" width="70" height="30" as="geometry" />
        </mxCell>
        <mxCell id="BqIFalrDcJLT26Kmx2qs-11" value="nome utente" style="text;html=1;align=center;verticalAlign=middle;resizable=0;points=[];autosize=1;strokeColor=none;fillColor=none;" vertex="1" parent="1">
          <mxGeometry x="-110" y="218" width="90" height="30" as="geometry" />
        </mxCell>
        <mxCell id="BqIFalrDcJLT26Kmx2qs-12" value="data attivazione" style="text;html=1;align=center;verticalAlign=middle;resizable=0;points=[];autosize=1;strokeColor=none;fillColor=none;" vertex="1" parent="1">
          <mxGeometry x="-145" y="238" width="110" height="30" as="geometry" />
        </mxCell>
        <mxCell id="BqIFalrDcJLT26Kmx2qs-13" value="id.account" style="text;html=1;align=center;verticalAlign=middle;resizable=0;points=[];autosize=1;strokeColor=none;fillColor=none;" vertex="1" parent="1">
          <mxGeometry x="-140" y="268" width="80" height="30" as="geometry" />
        </mxCell>
        <mxCell id="BqIFalrDcJLT26Kmx2qs-14" value="id prenota" style="text;html=1;align=center;verticalAlign=middle;resizable=0;points=[];autosize=1;strokeColor=none;fillColor=none;" vertex="1" parent="1">
          <mxGeometry x="-80" y="430" width="80" height="30" as="geometry" />
        </mxCell>
        <mxCell id="BqIFalrDcJLT26Kmx2qs-15" value="id.account" style="text;html=1;align=center;verticalAlign=middle;resizable=0;points=[];autosize=1;strokeColor=none;fillColor=none;" vertex="1" parent="1">
          <mxGeometry x="-160" y="430" width="80" height="30" as="geometry" />
        </mxCell>
        <mxCell id="BqIFalrDcJLT26Kmx2qs-16" value="Relationship" style="shape=rhombus;perimeter=rhombusPerimeter;whiteSpace=wrap;html=1;align=center;" vertex="1" parent="1">
          <mxGeometry x="-200" y="480" width="120" height="60" as="geometry" />
        </mxCell>
        <mxCell id="BqIFalrDcJLT26Kmx2qs-17" value="" style="endArrow=none;html=1;rounded=0;exitX=0.5;exitY=0;exitDx=0;exitDy=0;" edge="1" parent="1" source="BqIFalrDcJLT26Kmx2qs-18">
          <mxGeometry width="50" height="50" relative="1" as="geometry">
            <mxPoint x="-140" y="580" as="sourcePoint" />
            <mxPoint x="-140" y="540" as="targetPoint" />
          </mxGeometry>
        </mxCell>
        <mxCell id="BqIFalrDcJLT26Kmx2qs-18" value="Prenotato" style="rounded=0;whiteSpace=wrap;html=1;" vertex="1" parent="1">
          <mxGeometry x="-200" y="600" width="120" height="60" as="geometry" />
        </mxCell>
        <mxCell id="BqIFalrDcJLT26Kmx2qs-19" value="" style="endArrow=none;html=1;rounded=0;entryX=0.5;entryY=1;entryDx=0;entryDy=0;" edge="1" parent="1" target="BqIFalrDcJLT26Kmx2qs-18">
          <mxGeometry width="50" height="50" relative="1" as="geometry">
            <mxPoint x="-140" y="720" as="sourcePoint" />
            <mxPoint x="-90" y="670" as="targetPoint" />
          </mxGeometry>
        </mxCell>
        <mxCell id="BqIFalrDcJLT26Kmx2qs-20" value="" style="endArrow=none;html=1;rounded=0;entryX=0;entryY=0.5;entryDx=0;entryDy=0;" edge="1" parent="1" target="B6hAdmat24an9LXhmFXZ-9">
          <mxGeometry width="50" height="50" relative="1" as="geometry">
            <mxPoint x="-80" y="750" as="sourcePoint" />
            <mxPoint x="-30" y="700" as="targetPoint" />
          </mxGeometry>
        </mxCell>
        <mxCell id="BqIFalrDcJLT26Kmx2qs-21" value="" style="endArrow=none;html=1;rounded=0;entryX=0;entryY=0.5;entryDx=0;entryDy=0;" edge="1" parent="1" target="B6hAdmat24an9LXhmFXZ-8">
          <mxGeometry width="50" height="50" relative="1" as="geometry">
            <mxPoint x="-80" y="510" as="sourcePoint" />
            <mxPoint x="-30" y="460" as="targetPoint" />
          </mxGeometry>
        </mxCell>
        <mxCell id="BqIFalrDcJLT26Kmx2qs-22" value="id.prenotazione" style="text;html=1;align=center;verticalAlign=middle;resizable=0;points=[];autosize=1;strokeColor=none;fillColor=none;" vertex="1" parent="1">
          <mxGeometry x="-330" y="590" width="110" height="30" as="geometry" />
        </mxCell>
        <mxCell id="BqIFalrDcJLT26Kmx2qs-24" value="id posto" style="text;html=1;align=center;verticalAlign=middle;resizable=0;points=[];autosize=1;strokeColor=none;fillColor=none;" vertex="1" parent="1">
          <mxGeometry x="-300" y="620" width="70" height="30" as="geometry" />
        </mxCell>
        <mxCell id="BqIFalrDcJLT26Kmx2qs-25" value="id posto" style="text;html=1;align=center;verticalAlign=middle;resizable=0;points=[];autosize=1;strokeColor=none;fillColor=none;" vertex="1" parent="1">
          <mxGeometry x="50" y="670" width="70" height="30" as="geometry" />
        </mxCell>
        <mxCell id="BqIFalrDcJLT26Kmx2qs-27" value="sala" style="text;html=1;align=center;verticalAlign=middle;resizable=0;points=[];autosize=1;strokeColor=none;fillColor=none;" vertex="1" parent="1">
          <mxGeometry y="670" width="50" height="30" as="geometry" />
        </mxCell>
        <mxCell id="BqIFalrDcJLT26Kmx2qs-28" value="nome sala" style="text;html=1;align=center;verticalAlign=middle;resizable=0;points=[];autosize=1;strokeColor=none;fillColor=none;" vertex="1" parent="1">
          <mxGeometry x="180" y="798" width="80" height="30" as="geometry" />
        </mxCell>
        <mxCell id="BqIFalrDcJLT26Kmx2qs-29" value="Registro prestiti" style="rounded=0;whiteSpace=wrap;html=1;" vertex="1" parent="1">
          <mxGeometry x="600" y="360" width="120" height="60" as="geometry" />
        </mxCell>
        <mxCell id="BqIFalrDcJLT26Kmx2qs-30" value="prestato" style="shape=rhombus;perimeter=rhombusPerimeter;whiteSpace=wrap;html=1;align=center;" vertex="1" parent="1">
          <mxGeometry x="600" y="480" width="120" height="60" as="geometry" />
        </mxCell>
        <mxCell id="BqIFalrDcJLT26Kmx2qs-31" value="" style="endArrow=none;html=1;rounded=0;entryX=0;entryY=0.5;entryDx=0;entryDy=0;" edge="1" parent="1" target="BqIFalrDcJLT26Kmx2qs-29">
          <mxGeometry width="50" height="50" relative="1" as="geometry">
            <mxPoint x="520" y="390" as="sourcePoint" />
            <mxPoint x="570" y="340" as="targetPoint" />
          </mxGeometry>
        </mxCell>
        <mxCell id="BqIFalrDcJLT26Kmx2qs-32" value="" style="endArrow=none;html=1;rounded=0;entryX=0;entryY=0.5;entryDx=0;entryDy=0;" edge="1" parent="1" target="BqIFalrDcJLT26Kmx2qs-30">
          <mxGeometry width="50" height="50" relative="1" as="geometry">
            <mxPoint x="520" y="510" as="sourcePoint" />
            <mxPoint x="570" y="460" as="targetPoint" />
          </mxGeometry>
        </mxCell>
        <mxCell id="BqIFalrDcJLT26Kmx2qs-33" value="" style="endArrow=none;html=1;rounded=0;" edge="1" parent="1" source="BqIFalrDcJLT26Kmx2qs-29">
          <mxGeometry width="50" height="50" relative="1" as="geometry">
            <mxPoint x="660" y="470" as="sourcePoint" />
            <mxPoint x="660" y="480" as="targetPoint" />
          </mxGeometry>
        </mxCell>
        <mxCell id="BqIFalrDcJLT26Kmx2qs-34" value="id prestito" style="text;html=1;align=center;verticalAlign=middle;resizable=0;points=[];autosize=1;strokeColor=none;fillColor=none;" vertex="1" parent="1">
          <mxGeometry x="570" y="328" width="80" height="30" as="geometry" />
        </mxCell>
        <mxCell id="BqIFalrDcJLT26Kmx2qs-35" value="id libro" style="text;html=1;align=center;verticalAlign=middle;resizable=0;points=[];autosize=1;strokeColor=none;fillColor=none;" vertex="1" parent="1">
          <mxGeometry x="650" y="328" width="60" height="30" as="geometry" />
        </mxCell>
        <mxCell id="BqIFalrDcJLT26Kmx2qs-36" value="nome sala" style="text;html=1;align=center;verticalAlign=middle;resizable=0;points=[];autosize=1;strokeColor=none;fillColor=none;" vertex="1" parent="1">
          <mxGeometry x="530" y="730" width="80" height="30" as="geometry" />
        </mxCell>
        <mxCell id="BqIFalrDcJLT26Kmx2qs-37" value="id turno" style="text;html=1;align=center;verticalAlign=middle;resizable=0;points=[];autosize=1;strokeColor=none;fillColor=none;" vertex="1" parent="1">
          <mxGeometry x="1320" y="68" width="60" height="30" as="geometry" />
        </mxCell>
        <mxCell id="BqIFalrDcJLT26Kmx2qs-38" value="orario inizio" style="text;html=1;align=center;verticalAlign=middle;resizable=0;points=[];autosize=1;strokeColor=none;fillColor=none;" vertex="1" parent="1">
          <mxGeometry x="1390" y="200" width="80" height="30" as="geometry" />
        </mxCell>
        <mxCell id="BqIFalrDcJLT26Kmx2qs-39" value="orario fine" style="text;html=1;align=center;verticalAlign=middle;resizable=0;points=[];autosize=1;strokeColor=none;fillColor=none;" vertex="1" parent="1">
          <mxGeometry x="1470" y="135" width="80" height="30" as="geometry" />
        </mxCell>
        <mxCell id="BqIFalrDcJLT26Kmx2qs-40" value="giorni" style="text;html=1;align=center;verticalAlign=middle;resizable=0;points=[];autosize=1;strokeColor=none;fillColor=none;" vertex="1" parent="1">
          <mxGeometry x="1470" y="98" width="50" height="30" as="geometry" />
        </mxCell>
        <mxCell id="BqIFalrDcJLT26Kmx2qs-41" value="nome&amp;nbsp;" style="text;html=1;align=center;verticalAlign=middle;resizable=0;points=[];autosize=1;strokeColor=none;fillColor=none;" vertex="1" parent="1">
          <mxGeometry x="810" y="-190" width="60" height="30" as="geometry" />
        </mxCell>
        <mxCell id="BqIFalrDcJLT26Kmx2qs-42" value="cognome" style="text;html=1;align=center;verticalAlign=middle;resizable=0;points=[];autosize=1;strokeColor=none;fillColor=none;" vertex="1" parent="1">
          <mxGeometry x="870" y="-190" width="70" height="30" as="geometry" />
        </mxCell>
        <mxCell id="BqIFalrDcJLT26Kmx2qs-43" value="tipo contratto" style="text;html=1;align=center;verticalAlign=middle;resizable=0;points=[];autosize=1;strokeColor=none;fillColor=none;" vertex="1" parent="1">
          <mxGeometry x="850" y="-232" width="90" height="30" as="geometry" />
        </mxCell>
        <mxCell id="BqIFalrDcJLT26Kmx2qs-44" value="stipendio" style="text;html=1;align=center;verticalAlign=middle;resizable=0;points=[];autosize=1;strokeColor=none;fillColor=none;" vertex="1" parent="1">
          <mxGeometry x="935" y="-192" width="70" height="30" as="geometry" />
        </mxCell>
        <mxCell id="BqIFalrDcJLT26Kmx2qs-45" value="id contratto" style="text;html=1;align=center;verticalAlign=middle;resizable=0;points=[];autosize=1;strokeColor=none;fillColor=none;" vertex="1" parent="1">
          <mxGeometry x="790" y="-152" width="80" height="30" as="geometry" />
        </mxCell>
        <mxCell id="BqIFalrDcJLT26Kmx2qs-46" value="data inizio" style="text;html=1;align=center;verticalAlign=middle;resizable=0;points=[];autosize=1;strokeColor=none;fillColor=none;" vertex="1" parent="1">
          <mxGeometry x="860" y="-152" width="80" height="30" as="geometry" />
        </mxCell>
        <mxCell id="BqIFalrDcJLT26Kmx2qs-47" value="data fine" style="text;html=1;align=center;verticalAlign=middle;resizable=0;points=[];autosize=1;strokeColor=none;fillColor=none;" vertex="1" parent="1">
          <mxGeometry x="925" y="-152" width="70" height="30" as="geometry" />
        </mxCell>
        <mxCell id="BqIFalrDcJLT26Kmx2qs-48" value="id posto" style="text;html=1;align=center;verticalAlign=middle;resizable=0;points=[];autosize=1;strokeColor=none;fillColor=none;" vertex="1" parent="1">
          <mxGeometry x="1171" y="465" width="70" height="30" as="geometry" />
        </mxCell>
        <mxCell id="BqIFalrDcJLT26Kmx2qs-49" value="data ritrovamento" style="text;html=1;align=center;verticalAlign=middle;resizable=0;points=[];autosize=1;strokeColor=none;fillColor=none;" vertex="1" parent="1">
          <mxGeometry x="1170" y="495" width="120" height="30" as="geometry" />
        </mxCell>
        <mxCell id="BqIFalrDcJLT26Kmx2qs-50" value="oggetto di valore" style="text;html=1;align=center;verticalAlign=middle;resizable=0;points=[];autosize=1;strokeColor=none;fillColor=none;" vertex="1" parent="1">
          <mxGeometry x="1170" y="525" width="110" height="30" as="geometry" />
        </mxCell>
        <mxCell id="BqIFalrDcJLT26Kmx2qs-51" value="sale pulite" style="text;html=1;align=center;verticalAlign=middle;resizable=0;points=[];autosize=1;strokeColor=none;fillColor=none;" vertex="1" parent="1">
          <mxGeometry x="925" y="590" width="80" height="30" as="geometry" />
        </mxCell>
        <mxCell id="BqIFalrDcJLT26Kmx2qs-53" value="dipendenti" style="text;html=1;align=center;verticalAlign=middle;resizable=0;points=[];autosize=1;strokeColor=none;fillColor=none;" vertex="1" parent="1">
          <mxGeometry x="925" y="615" width="80" height="30" as="geometry" />
        </mxCell>
        <mxCell id="BqIFalrDcJLT26Kmx2qs-54" value="data" style="text;html=1;align=center;verticalAlign=middle;resizable=0;points=[];autosize=1;strokeColor=none;fillColor=none;" vertex="1" parent="1">
          <mxGeometry x="925" y="640" width="50" height="30" as="geometry" />
        </mxCell>
      </root>
    </mxGraphModel>
  </diagram>
</mxfile>
